<svg xmlns="http://www.w3.org/2000/svg" width="60" height="60" viewBox="0 0 60 60">
  <g id="ic-18plus" transform="translate(-158 -125)">
    <g id="Group_10586" data-name="Group 10586" transform="translate(-262.196 295.348)">
      <path id="Path_9429" data-name="Path 9429" d="M437.337-148.668v18.4H434V-145.8h-3.8v-2.865Z" transform="translate(0 -0.423)" fill="#231f20"/>
      <path id="Path_9430" data-name="Path 9430" d="M472.215-138.593a4.541,4.541,0,0,1,.758,2.613,4.887,4.887,0,0,1-.912,2.942,5.709,5.709,0,0,1-2.581,1.93,10.363,10.363,0,0,1-3.879.67,10.261,10.261,0,0,1-3.866-.67,5.631,5.631,0,0,1-2.556-1.93,4.934,4.934,0,0,1-.9-2.942,4.6,4.6,0,0,1,.745-2.613,5.12,5.12,0,0,1,2.132-1.773,4.314,4.314,0,0,1-1.657-1.589,4.4,4.4,0,0,1-.578-2.271,4.5,4.5,0,0,1,.835-2.705,5.343,5.343,0,0,1,2.35-1.786,9.034,9.034,0,0,1,3.493-.63,9.11,9.11,0,0,1,3.519.63,5.435,5.435,0,0,1,2.363,1.786,4.45,4.45,0,0,1,.848,2.705,4.26,4.26,0,0,1-.591,2.259,4.6,4.6,0,0,1-1.7,1.6A5.188,5.188,0,0,1,472.215-138.593Zm-3.686,4.688a2.549,2.549,0,0,0,1.079-2.18,2.524,2.524,0,0,0-1.079-2.154,4.868,4.868,0,0,0-2.928-.788,4.749,4.749,0,0,0-2.9.788,2.544,2.544,0,0,0-1.053,2.154,2.57,2.57,0,0,0,1.053,2.18,4.749,4.749,0,0,0,2.9.788A4.868,4.868,0,0,0,468.529-133.9Zm-5.407-12.082a2.257,2.257,0,0,0-.912,1.918,2.239,2.239,0,0,0,.912,1.878,3.992,3.992,0,0,0,2.479.7,4.1,4.1,0,0,0,2.517-.7,2.228,2.228,0,0,0,.925-1.878,2.237,2.237,0,0,0-.938-1.918,4.166,4.166,0,0,0-2.5-.683A4.048,4.048,0,0,0,463.122-145.987Z" transform="translate(-17.097 0)" fill="#231f20"/>
      <path id="Path_9431" data-name="Path 9431" d="M516.157-132.85H511.61v4.657h-2.748v-4.657h-4.547v-2.662h4.547v-4.657h2.748v4.657h4.547Z" transform="translate(-45.224 -5.712)" fill="#231f20"/>
    </g>
    <rect id="Rectangle_2464" data-name="Rectangle 2464" width="60" height="60" transform="translate(158 125)" fill="none"/>
  </g>
</svg>
