<svg xmlns="http://www.w3.org/2000/svg" width="60" height="60" viewBox="0 0 60 60">
  <g id="ic-helmet" transform="translate(-158 -38)">
    <g id="Group_10592" data-name="Group 10592" transform="translate(4.44 11.119)">
      <path id="Path_9418" data-name="Path 9418" d="M185.146,134.887a19.511,19.511,0,0,0-5.523-10.4l.03-.029a19.461,19.461,0,0,0-29.766,24.834,2.917,2.917,0,0,0,1.622,1.157,20.062,20.062,0,0,0,3.857,3.723,18.486,18.486,0,0,0,12,3.849,17.448,17.448,0,0,0,7.925-2.491,16.37,16.37,0,0,1-7.472.679,16.118,16.118,0,0,1-4.529-1.359l1.316-14.911c.087-.087.175-.175.269-.261a7.635,7.635,0,0,1,2.139-1.359h15.208A2.946,2.946,0,0,0,185.146,134.887Zm-26.61,17.473a17.907,17.907,0,0,1-3.135-2.94,13.19,13.19,0,0,0,5.217-2.671q-.248,3.323-.5,6.646A17.764,17.764,0,0,1,158.536,152.36Z" transform="translate(18.094 -81.914)" fill="#231f20"/>
      <g id="White_Logo" data-name="White Logo" transform="translate(171.339 45.528)">
        <path id="voi_plain_white" data-name="voi plain white" d="M177.415,144.007l-2.051,4.86H173.91l-2.041-4.86h1.454l1.346,3.306,1.391-3.306Zm3.217,4.926a2.921,2.921,0,0,1-1.38-.321,2.392,2.392,0,0,1-.955-.892,2.606,2.606,0,0,1,0-2.588,2.392,2.392,0,0,1,.955-.892,3.118,3.118,0,0,1,2.755,0,2.4,2.4,0,0,1,.95.892,2.607,2.607,0,0,1,0,2.588,2.4,2.4,0,0,1-.95.891A2.9,2.9,0,0,1,180.632,148.932Zm0-1.158a1.175,1.175,0,0,0,.891-.367,1.558,1.558,0,0,0,0-1.963,1.175,1.175,0,0,0-.891-.366,1.191,1.191,0,0,0-.9.366,1.542,1.542,0,0,0,0,1.964A1.191,1.191,0,0,0,180.632,147.775Zm4.078-3.768h1.408v4.86H184.71Zm.691-.693a.9.9,0,0,1-.633-.226.765.765,0,0,1,0-1.122.9.9,0,0,1,.633-.227.916.916,0,0,1,.633.217.7.7,0,0,1,.245.543.768.768,0,0,1-.245.584.882.882,0,0,1-.633.231Zm3,5.619a.846.846,0,0,1-.624-.253.857.857,0,0,1-.253-.633.826.826,0,0,1,.253-.629.933.933,0,0,1,1.248,0,.826.826,0,0,1,.253.629.857.857,0,0,1-.253.633A.846.846,0,0,1,188.4,148.932Z" transform="translate(-171.869 -141.739)" fill="#fff"/>
      </g>
    </g>
    <rect id="Rectangle_2463" data-name="Rectangle 2463" width="60" height="60" transform="translate(158 38)" fill="none"/>
  </g>
</svg>
