<svg xmlns="http://www.w3.org/2000/svg" width="60" height="60" viewBox="0 0 60 60">
  <g id="ic-oneperson" transform="translate(-158 -221)">
    <g id="Group_10593" data-name="Group 10593" transform="translate(3.046 1.773)">
      <g id="Group_10584" data-name="Group 10584" transform="translate(164.954 227.227)">
        <g id="Group_10570" data-name="Group 10570" transform="translate(29.14 13.076)">
          <path id="Path_9419" data-name="Path 9419" d="M220.31,638.554a1.121,1.121,0,0,1-1.114-1.016l-2.013-21.4h-2.326a1.121,1.121,0,1,1,0-2.242H218.2a1.121,1.121,0,0,1,1.116,1.016l2.108,22.415a1.12,1.12,0,0,1-1.011,1.221A1,1,0,0,1,220.31,638.554Z" transform="translate(-213.736 -613.898)"/>
        </g>
        <g id="Group_10571" data-name="Group 10571" transform="translate(6.741 29.244)">
          <path id="Path_9420" data-name="Path 9420" d="M189.211,660.559H166.916a1.121,1.121,0,0,1,0-2.242h21.6l4.659-9.235a1.121,1.121,0,0,1,2,1.01l-4.969,9.85A1.12,1.12,0,0,1,189.211,660.559Z" transform="translate(-165.795 -648.467)"/>
        </g>
        <g id="Group_10572" data-name="Group 10572" transform="translate(0 36.187)">
          <path id="Path_9421" data-name="Path 9421" d="M155.645,671.685a4.179,4.179,0,1,1,4.179-4.179A4.184,4.184,0,0,1,155.645,671.685Zm0-6.117a1.938,1.938,0,1,0,1.937,1.938A1.94,1.94,0,0,0,155.645,665.569Z" transform="translate(-151.466 -663.327)"/>
        </g>
        <g id="Group_10573" data-name="Group 10573" transform="translate(32.495 36.187)">
          <path id="Path_9422" data-name="Path 9422" d="M225.1,671.685a4.179,4.179,0,1,1,4.179-4.179A4.184,4.184,0,0,1,225.1,671.685Zm0-6.117a1.938,1.938,0,1,0,1.937,1.938A1.94,1.94,0,0,0,225.1,665.569Z" transform="translate(-220.916 -663.327)"/>
        </g>
        <g id="Group_10574" data-name="Group 10574" transform="translate(21.106)">
          <circle id="Ellipse_1220" data-name="Ellipse 1220" cx="3.618" cy="3.618" r="3.618"/>
        </g>
        <g id="Group_10575" data-name="Group 10575" transform="translate(19.993 7.936)">
          <path id="Rectangle_2461" data-name="Rectangle 2461" d="M4.732,0h0A4.732,4.732,0,0,1,9.464,4.732v9.358a4.139,4.139,0,0,1-4.139,4.139H4.139A4.139,4.139,0,0,1,0,14.089V4.732A4.732,4.732,0,0,1,4.732,0Z"/>
        </g>
        <g id="Group_10576" data-name="Group 10576" transform="translate(8.862)">
          <circle id="Ellipse_1221" data-name="Ellipse 1221" cx="3.618" cy="3.618" r="3.618"/>
        </g>
        <g id="Group_10577" data-name="Group 10577" transform="translate(7.748 7.936)">
          <path id="Rectangle_2462" data-name="Rectangle 2462" d="M4.732,0h0A4.732,4.732,0,0,1,9.464,4.732v9.358a4.139,4.139,0,0,1-4.139,4.139H4.139A4.139,4.139,0,0,1,0,14.089V4.732A4.732,4.732,0,0,1,4.732,0Z"/>
        </g>
        <g id="Group_10578" data-name="Group 10578" transform="translate(25.116 9.263)">
          <path id="Path_9423" data-name="Path 9423" d="M215.357,612.413h-4.968a1.87,1.87,0,0,1-1.212-.446l-3.4-2.9a1.868,1.868,0,0,1,2.424-2.844l2.874,2.45h4.28a1.868,1.868,0,1,1,0,3.736Z" transform="translate(-205.122 -605.781)"/>
        </g>
        <g id="Group_10579" data-name="Group 10579" transform="translate(11.69 8.514)">
          <path id="Path_9424" data-name="Path 9424" d="M188.174,611.561h-4.968a1.868,1.868,0,0,1-1.116-.37l-4.892-3.643a1.868,1.868,0,1,1,2.231-3l4.4,3.273h4.349a1.868,1.868,0,0,1,0,3.736Z" transform="translate(-176.445 -604.181)"/>
        </g>
        <g id="Group_10580" data-name="Group 10580" transform="translate(12.981 20.847)">
          <path id="Path_9425" data-name="Path 9425" d="M181.082,650.741a1.868,1.868,0,0,1-1.868-1.868V632.362a1.868,1.868,0,0,1,3.736,0v16.511A1.868,1.868,0,0,1,181.082,650.741Z" transform="translate(-179.214 -630.494)"/>
        </g>
        <g id="Group_10581" data-name="Group 10581" transform="translate(8.245 20.847)">
          <path id="Path_9426" data-name="Path 9426" d="M170.96,650.741a1.868,1.868,0,0,1-1.868-1.868V632.362a1.868,1.868,0,0,1,3.736,0v16.511A1.868,1.868,0,0,1,170.96,650.741Z" transform="translate(-169.092 -630.494)"/>
        </g>
        <g id="Group_10582" data-name="Group 10582" transform="translate(24.256 20.846)">
          <path id="Path_9427" data-name="Path 9427" d="M206.293,650.235a1.871,1.871,0,0,1-1.831-2.252l1.74-8.3-2.747-6.6a1.868,1.868,0,1,1,3.449-1.436l2.97,7.134a1.864,1.864,0,0,1,.1,1.1l-1.859,8.871A1.87,1.87,0,0,1,206.293,650.235Z" transform="translate(-203.311 -630.492)"/>
        </g>
        <g id="Group_10583" data-name="Group 10583" transform="translate(18.12 21.627)">
          <path id="Path_9428" data-name="Path 9428" d="M192.063,651.873a1.869,1.869,0,0,1-1.725-2.582l2.942-7.122.355-8.219a1.868,1.868,0,1,1,3.733.16L197,642.659a1.865,1.865,0,0,1-.14.633l-3.068,7.425A1.868,1.868,0,0,1,192.063,651.873Z" transform="translate(-190.196 -632.164)"/>
        </g>
      </g>
      <line id="Line_3280" data-name="Line 3280" x2="33" y2="33" transform="translate(169.5 235.5)" fill="none" stroke="#f46c63" stroke-linecap="square" stroke-miterlimit="10" stroke-width="5"/>
    </g>
    <rect id="Rectangle_2465" data-name="Rectangle 2465" width="60" height="60" transform="translate(158 221)" fill="none"/>
  </g>
</svg>
