<svg xmlns="http://www.w3.org/2000/svg" viewBox="0 0 519.75 214.65">
  <defs>
    <style>
      .cls-1 {
        fill: #fff;
      }
    </style>
  </defs>
  <path id="voi_plain_white" class="cls-1" d="M-99.765-145.26-161.055,0h-43.47l-61.02-145.26h43.47l40.23,98.82,41.58-98.82ZM-3.915,2.16q-22.95,0-41.175-9.585a71.254,71.254,0,0,1-28.485-26.6q-10.26-17.01-10.26-38.61t10.26-38.61a71.254,71.254,0,0,1,28.485-26.6q18.225-9.585,41.175-9.585t41.04,9.585a71.477,71.477,0,0,1,28.35,26.6q10.26,17.01,10.26,38.61T65.475-34.02a71.477,71.477,0,0,1-28.35,26.6Q19.035,2.16-3.915,2.16Zm0-34.56q16.2,0,26.595-10.935t10.4-29.295q0-18.36-10.4-29.3T-3.915-112.86q-16.2,0-26.73,10.935t-10.53,29.3q0,18.36,10.53,29.295T-3.915-32.4Zm121.23-112.86h42.12V0h-42.12Zm21.06-20.25q-11.61,0-18.9-6.75a21.892,21.892,0,0,1-7.29-16.74,21.892,21.892,0,0,1,7.29-16.74q7.29-6.75,18.9-6.75t18.9,6.48a20.777,20.777,0,0,1,7.29,16.2,22.927,22.927,0,0,1-7.29,17.415Q149.985-165.51,138.375-165.51ZM228.015,2.16a25.316,25.316,0,0,1-18.63-7.56,25.643,25.643,0,0,1-7.56-18.9q0-11.61,7.56-18.765a26.072,26.072,0,0,1,18.63-7.155,26.072,26.072,0,0,1,18.63,7.155Q254.2-35.91,254.2-24.3a25.643,25.643,0,0,1-7.56,18.9A25.316,25.316,0,0,1,228.015,2.16Z" transform="translate(265.545 212.49)"/>
</svg>
