<svg xmlns="http://www.w3.org/2000/svg" width="1022.694" height="422.369" viewBox="0 0 1022.694 422.369">
  <path id="voi_plain_coral" d="M60.655-80.205l-120.6,285.82h-85.534L-265.545-80.205h85.534l79.159,194.442,81.81-194.442ZM249.25,209.865q-45.158,0-81.022-18.86a140.2,140.2,0,0,1-56.044-52.343Q92,105.19,92,62.691T112.184-13.28a140.2,140.2,0,0,1,56.049-52.337q35.86-18.86,81.022-18.86t80.752,18.86a140.642,140.642,0,0,1,55.783,52.34Q405.978,20.2,405.978,62.694T385.79,138.675a140.642,140.642,0,0,1-55.783,52.341Q294.408,209.865,249.25,209.865Zm0-68q31.876,0,52.33-21.517T322.043,62.7q0-36.13-20.463-57.652T249.25-16.454q-31.876,0-52.6,21.517T175.937,62.715q0,36.13,20.719,57.642T249.25,141.863ZM487.788-80.205h82.877v285.82H487.788Zm41.438-39.845q-22.84,0-37.188-13.282a43.076,43.076,0,0,1-14.344-32.939,43.076,43.076,0,0,1,14.344-32.939q14.344-13.282,37.188-13.282t37.188,12.75a40.882,40.882,0,0,1,14.344,31.876A45.112,45.112,0,0,1,566.415-133.6Q552.071-120.05,529.226-120.05Zm176.38,329.915a49.814,49.814,0,0,1-36.657-14.875A50.456,50.456,0,0,1,654.074,157.8q0-22.84,14.875-36.923a54.762,54.762,0,0,1,73.315,0Q757.13,134.956,757.13,157.8a50.456,50.456,0,0,1-14.875,37.188,49.815,49.815,0,0,1-36.647,14.875Z" transform="translate(265.545 212.491)" fill="#f46c63"/>
</svg>
