<svg xmlns="http://www.w3.org/2000/svg" xmlns:xlink="http://www.w3.org/1999/xlink" width="1000" height="1000" viewBox="0 0 1000 1000">
  <defs>
    <clipPath id="clip-voi_logo_coral-bg">
      <rect width="1000" height="1000"/>
    </clipPath>
  </defs>
  <g id="voi_logo_coral-bg" clip-path="url(#clip-voi_logo_coral-bg)">
    <rect width="1000" height="1000" fill="#f46c63"/>
    <path id="voi_plain_white" d="M-49.277-124.785l-79.956,189.5h-56.709l-79.6-189.5h56.709L-156.354,4.131l54.243-128.916ZM75.765,67.532q-29.939,0-53.715-12.5a92.954,92.954,0,0,1-37.16-34.7Q-28.5-1.864-28.5-30.042T-15.11-80.411a92.955,92.955,0,0,1,37.16-34.7q23.775-12.5,53.715-12.5t53.539,12.5a93.245,93.245,0,0,1,36.984,34.7q13.385,22.19,13.385,50.369T166.287,20.333a93.245,93.245,0,0,1-36.984,34.7Q105.7,67.532,75.765,67.532Zm0-45.085q21.134,0,34.695-14.265t13.567-38.217q0-23.952-13.567-38.223T75.765-82.518q-21.134,0-34.871,14.265T27.157-30.029q0,23.952,13.737,38.217T75.765,22.447ZM233.915-124.785h54.948v189.5H233.915ZM261.389-151.2q-15.146,0-24.656-8.806a28.559,28.559,0,0,1-9.51-21.838,28.559,28.559,0,0,1,9.51-21.838q9.51-8.806,24.656-8.806t24.656,8.453a27.1,27.1,0,0,1,9.51,21.134,29.909,29.909,0,0,1-9.51,22.719q-9.51,8.982-24.656,8.982ZM378.329,67.532a33.026,33.026,0,0,1-24.3-9.862,33.452,33.452,0,0,1-9.862-24.656q0-15.146,9.862-24.48a36.308,36.308,0,0,1,48.608,0q9.856,9.334,9.856,24.48a33.452,33.452,0,0,1-9.862,24.656A33.026,33.026,0,0,1,378.329,67.532Z" transform="translate(426.399 572.803)" fill="#fff"/>
  </g>
</svg>
