<svg xmlns="http://www.w3.org/2000/svg" width="102.661" height="42.398" viewBox="0 0 102.661 42.398"><defs><style>.a{fill:#f46c63;}</style></defs><path class="a" d="M-232.8-199.211l-12.106,28.691h-8.586l-12.052-28.691h8.586l7.946,19.519,8.213-19.519Zm18.932,29.118A17.2,17.2,0,0,1-222-171.986a14.073,14.073,0,0,1-5.626-5.254,14.473,14.473,0,0,1-2.027-7.626,14.474,14.474,0,0,1,2.027-7.626A14.075,14.075,0,0,1-222-197.746a17.2,17.2,0,0,1,8.133-1.893,17.046,17.046,0,0,1,8.106,1.893,14.118,14.118,0,0,1,5.6,5.254,14.474,14.474,0,0,1,2.027,7.626,14.479,14.479,0,0,1-2.027,7.627,14.118,14.118,0,0,1-5.6,5.254A17.052,17.052,0,0,1-213.869-170.093Zm0-6.826a6.929,6.929,0,0,0,5.253-2.16,8.055,8.055,0,0,0,2.054-5.786,8.053,8.053,0,0,0-2.054-5.787,6.923,6.923,0,0,0-5.253-2.159,7.015,7.015,0,0,0-5.28,2.16,7.992,7.992,0,0,0-2.08,5.787,7.991,7.991,0,0,0,2.08,5.786A7.012,7.012,0,0,0-213.869-176.919Zm23.945-22.292h8.319v28.691h-8.319Zm4.16-4a5.277,5.277,0,0,1-3.733-1.333,4.324,4.324,0,0,1-1.44-3.306,4.324,4.324,0,0,1,1.44-3.306,5.276,5.276,0,0,1,3.733-1.333,5.409,5.409,0,0,1,3.733,1.28,4.1,4.1,0,0,1,1.44,3.2,4.529,4.529,0,0,1-1.44,3.44A5.216,5.216,0,0,1-185.764-203.211Zm17.706,33.118a5,5,0,0,1-3.68-1.493,5.065,5.065,0,0,1-1.493-3.733,4.868,4.868,0,0,1,1.493-3.706,5.149,5.149,0,0,1,3.68-1.413,5.149,5.149,0,0,1,3.68,1.413,4.87,4.87,0,0,1,1.492,3.706,5.065,5.065,0,0,1-1.493,3.733,5,5,0,0,1-3.679,1.493Z" transform="translate(265.545 212.49)"/></svg>