<svg xmlns="http://www.w3.org/2000/svg" width="50" height="20.65" viewBox="0 0 50 20.65"><defs><style>.a{fill:#fff;}</style></defs><path class="a" d="M-249.6-206.023l-5.9,13.974h-4.182l-5.87-13.974h4.182l3.87,9.506,4-9.506Zm9.221,14.182a8.379,8.379,0,0,1-3.961-.922,6.855,6.855,0,0,1-2.74-2.559,7.049,7.049,0,0,1-.987-3.714,7.049,7.049,0,0,1,.987-3.714,6.855,6.855,0,0,1,2.74-2.559,8.379,8.379,0,0,1,3.961-.922,8.3,8.3,0,0,1,3.948.922,6.876,6.876,0,0,1,2.727,2.559,7.049,7.049,0,0,1,.987,3.714,7.052,7.052,0,0,1-.987,3.715,6.876,6.876,0,0,1-2.727,2.559A8.305,8.305,0,0,1-240.376-191.841Zm0-3.325a3.375,3.375,0,0,0,2.558-1.052,3.923,3.923,0,0,0,1-2.818,3.922,3.922,0,0,0-1-2.819,3.372,3.372,0,0,0-2.558-1.051,3.417,3.417,0,0,0-2.571,1.052,3.892,3.892,0,0,0-1.013,2.819,3.892,3.892,0,0,0,1.013,2.818A3.415,3.415,0,0,0-240.376-195.166Zm11.662-10.857h4.052v13.974h-4.052Zm2.026-1.948a2.57,2.57,0,0,1-1.818-.649,2.106,2.106,0,0,1-.7-1.61,2.106,2.106,0,0,1,.7-1.61,2.57,2.57,0,0,1,1.818-.649,2.634,2.634,0,0,1,1.818.623,2,2,0,0,1,.7,1.558,2.206,2.206,0,0,1-.7,1.675A2.54,2.54,0,0,1-226.688-207.971Zm8.623,16.13a2.435,2.435,0,0,1-1.792-.727,2.467,2.467,0,0,1-.727-1.818,2.371,2.371,0,0,1,.727-1.805,2.508,2.508,0,0,1,1.792-.688,2.508,2.508,0,0,1,1.792.688,2.372,2.372,0,0,1,.727,1.805,2.467,2.467,0,0,1-.727,1.818,2.435,2.435,0,0,1-1.792.727Z" transform="translate(265.545 212.49)"/></svg>