<svg width="42" height="45" viewBox="0 0 42 45" fill="none" xmlns="http://www.w3.org/2000/svg">
<ellipse cx="21" cy="43" rx="8" ry="2" fill="black" fill-opacity="0.1"/>
<mask id="path-2-inside-1_2200_2698" fill="white">
<path fill-rule="evenodd" clip-rule="evenodd" d="M22.8837 41.4281C23.4956 40.3902 24.55 39.708 25.7174 39.4098C33.9288 37.3119 40 29.865 40 21C40 10.5066 31.4934 2 21 2C10.5066 2 2 10.5066 2 21C2 29.865 8.07126 37.312 16.2826 39.4098C17.45 39.708 18.5044 40.3902 19.1163 41.4281L19.5645 42.1884C20.2025 43.2705 21.7975 43.2705 22.4355 42.1884L22.8837 41.4281Z"/>
</mask>
<path fill-rule="evenodd" clip-rule="evenodd" d="M22.8837 41.4281C23.4956 40.3902 24.55 39.708 25.7174 39.4098C33.9288 37.3119 40 29.865 40 21C40 10.5066 31.4934 2 21 2C10.5066 2 2 10.5066 2 21C2 29.865 8.07126 37.312 16.2826 39.4098C17.45 39.708 18.5044 40.3902 19.1163 41.4281L19.5645 42.1884C20.2025 43.2705 21.7975 43.2705 22.4355 42.1884L22.8837 41.4281Z" fill="white"/>
<path d="M19.5645 42.1884L18.7031 42.6963L19.5645 42.1884ZM22.4355 42.1884L23.2969 42.6963L22.4355 42.1884ZM16.2826 39.4098L16.5302 38.4409L16.2826 39.4098ZM19.1163 41.4281L18.2549 41.936L19.1163 41.4281ZM25.7174 39.4098L25.4699 38.4409L25.7174 39.4098ZM22.8837 41.4281L22.0223 40.9202L22.8837 41.4281ZM39 21C39 29.397 33.2492 36.4534 25.4699 38.4409L25.9649 40.3787C34.6083 38.1705 41 30.3329 41 21H39ZM21 3C30.9411 3 39 11.0589 39 21H41C41 9.95431 32.0457 1 21 1V3ZM3 21C3 11.0589 11.0589 3 21 3V1C9.95431 1 1 9.95431 1 21H3ZM16.5302 38.4409C8.75077 36.4534 3 29.397 3 21H1C1 30.3329 7.39174 38.1705 16.0351 40.3787L16.5302 38.4409ZM20.426 41.6805L19.9777 40.9203L18.2549 41.936L18.7031 42.6963L20.426 41.6805ZM21.5741 41.6805C21.3229 42.1065 20.6771 42.1065 20.426 41.6805L18.7031 42.6963C19.728 44.4346 22.2721 44.4346 23.2969 42.6963L21.5741 41.6805ZM22.0223 40.9202L21.5741 41.6805L23.2969 42.6963L23.7452 41.936L22.0223 40.9202ZM16.0351 40.3787C16.9988 40.6249 17.804 41.1713 18.2549 41.936L19.9777 40.9203C19.2047 39.6091 17.9013 38.7912 16.5302 38.4409L16.0351 40.3787ZM25.4699 38.4409C24.0988 38.7912 22.7953 39.6091 22.0223 40.9202L23.7452 41.936C24.196 41.1713 25.0013 40.6249 25.9649 40.3787L25.4699 38.4409Z" fill="#B8B4B5" mask="url(#path-2-inside-1_2200_2698)"/>
<rect x="5" y="5" width="32" height="32" rx="16" fill="white"/>
<path d="M16.6208 19.8834C16.4875 19.8834 16.3541 19.85 16.2291 19.7834L15.1875 19.2334C14.8458 19.0584 14.6708 18.6667 14.7625 18.3C14.8541 17.925 15.1875 17.6667 15.5708 17.6667H18.5208C18.5208 17.6667 18.5375 17.6667 18.5458 17.6667H19.2875C19.7458 17.6667 20.1208 18.0417 20.1208 18.5C20.1208 18.9584 19.7458 19.3334 19.2875 19.3334H18.5291C18.0041 19.3334 17.4958 19.4834 17.0458 19.7584C16.9125 19.8417 16.7625 19.8834 16.6041 19.8834H16.6208Z" fill="#282425"/>
<path d="M15.0125 22.6833C16.2625 22.6833 17.2792 23.7 17.2792 24.95C17.2792 26.2 16.2625 27.2167 15.0125 27.2167C13.7625 27.2167 12.7458 26.2 12.7458 24.95C12.7458 23.7 13.7625 22.6833 15.0125 22.6833ZM15.0125 21.0167C12.8458 21.0167 11.0792 22.775 11.0792 24.95C11.0792 27.125 12.8375 28.8833 15.0125 28.8833C17.1875 28.8833 18.9458 27.125 18.9458 24.95C18.9458 22.775 17.1875 21.0167 15.0125 21.0167Z" fill="#282425"/>
<path d="M26.9875 22.6833C28.2375 22.6833 29.2542 23.7 29.2542 24.95C29.2542 26.2 28.2375 27.2167 26.9875 27.2167C25.7375 27.2167 24.7208 26.2 24.7208 24.95C24.7208 23.7 25.7375 22.6833 26.9875 22.6833ZM26.9875 21.0167C24.8208 21.0167 23.0542 22.775 23.0542 24.95C23.0542 27.125 24.8125 28.8833 26.9875 28.8833C29.1625 28.8833 30.9208 27.125 30.9208 24.95C30.9208 22.775 29.1625 21.0167 26.9875 21.0167Z" fill="#282425"/>
<path fill-rule="evenodd" clip-rule="evenodd" d="M19.1431 25L19.1458 25H19.1375C19.1394 25 19.1412 25 19.1431 25ZM15.5756 24.9754L19.1431 25C19.3993 24.9983 19.6386 24.8818 19.7958 24.675C19.9541 24.475 20.0125 24.2083 19.9458 23.9583L18.5625 18.7L16.9541 19.125L17.7462 22.1324C17.0381 21.4373 16.0713 21.0084 15.0041 21.0084C13.9645 21.0084 13.0343 21.4319 12.3333 22.1005C12.1349 22.2898 12.1644 22.6051 12.3738 22.7822L14.8261 24.8571C14.9163 24.9335 15.0308 24.9754 15.149 24.9754H15.5756Z" fill="#282425"/>
<path d="M25.3208 13.7584C25.2292 13.3834 24.8958 13.1167 24.5125 13.1167H22.1208C21.6625 13.1167 21.2875 13.4917 21.2875 13.95C21.2875 14.4084 21.6625 14.7834 22.1208 14.7834H23.8458L24.2458 16.4917H25.9542L25.3125 13.7584H25.3208Z" fill="#282425"/>
<path fill-rule="evenodd" clip-rule="evenodd" d="M25.9625 16.4917L27.8125 24.4167L27.8208 24.4084C27.9208 24.8584 27.6458 25.3 27.1958 25.4084C27.1291 25.4334 27.0708 25.4334 27.0042 25.4334H27.0041C26.6291 25.4334 26.2875 25.175 26.1958 24.7917L25.183 20.4624L20.4375 25.5584C20.2792 25.725 20.0625 25.825 19.8292 25.825V25.8334H15.8042C15.3458 25.8334 14.9708 25.4584 14.9708 25C14.9708 24.5417 15.3458 24.1667 15.8042 24.1667H19.4625L24.6375 18.6084C24.6666 18.5777 24.6974 18.5498 24.7297 18.5245L24.2541 16.4917H25.9625Z" fill="#F26961"/>
</svg>
