<svg width="42" height="45" viewBox="0 0 42 45" fill="none" xmlns="http://www.w3.org/2000/svg">
<ellipse cx="21" cy="43" rx="8" ry="2" fill="black" fill-opacity="0.1"/>
<mask id="path-2-inside-1_2200_2691" fill="white">
<path fill-rule="evenodd" clip-rule="evenodd" d="M22.8837 41.4281C23.4956 40.3902 24.55 39.708 25.7174 39.4098C33.9288 37.3119 40 29.865 40 21C40 10.5066 31.4934 2 21 2C10.5066 2 2 10.5066 2 21C2 29.865 8.07126 37.312 16.2826 39.4098C17.45 39.708 18.5044 40.3902 19.1163 41.4281L19.5645 42.1884C20.2025 43.2705 21.7975 43.2705 22.4355 42.1884L22.8837 41.4281Z"/>
</mask>
<path fill-rule="evenodd" clip-rule="evenodd" d="M22.8837 41.4281C23.4956 40.3902 24.55 39.708 25.7174 39.4098C33.9288 37.3119 40 29.865 40 21C40 10.5066 31.4934 2 21 2C10.5066 2 2 10.5066 2 21C2 29.865 8.07126 37.312 16.2826 39.4098C17.45 39.708 18.5044 40.3902 19.1163 41.4281L19.5645 42.1884C20.2025 43.2705 21.7975 43.2705 22.4355 42.1884L22.8837 41.4281Z" fill="white"/>
<path d="M19.5645 42.1884L18.7031 42.6963L19.5645 42.1884ZM22.4355 42.1884L23.2969 42.6963L22.4355 42.1884ZM16.2826 39.4098L16.5302 38.4409L16.2826 39.4098ZM19.1163 41.4281L18.2549 41.936L19.1163 41.4281ZM25.7174 39.4098L25.4699 38.4409L25.7174 39.4098ZM22.8837 41.4281L22.0223 40.9202L22.8837 41.4281ZM39 21C39 29.397 33.2492 36.4534 25.4699 38.4409L25.9649 40.3787C34.6083 38.1705 41 30.3329 41 21H39ZM21 3C30.9411 3 39 11.0589 39 21H41C41 9.95431 32.0457 1 21 1V3ZM3 21C3 11.0589 11.0589 3 21 3V1C9.95431 1 1 9.95431 1 21H3ZM16.5302 38.4409C8.75077 36.4534 3 29.397 3 21H1C1 30.3329 7.39174 38.1705 16.0351 40.3787L16.5302 38.4409ZM20.426 41.6805L19.9777 40.9203L18.2549 41.936L18.7031 42.6963L20.426 41.6805ZM21.5741 41.6805C21.3229 42.1065 20.6771 42.1065 20.426 41.6805L18.7031 42.6963C19.728 44.4346 22.2721 44.4346 23.2969 42.6963L21.5741 41.6805ZM22.0223 40.9202L21.5741 41.6805L23.2969 42.6963L23.7452 41.936L22.0223 40.9202ZM16.0351 40.3787C16.9988 40.6249 17.804 41.1713 18.2549 41.936L19.9777 40.9203C19.2047 39.6091 17.9013 38.7912 16.5302 38.4409L16.0351 40.3787ZM25.4699 38.4409C24.0988 38.7912 22.7953 39.6091 22.0223 40.9202L23.7452 41.936C24.196 41.1713 25.0013 40.6249 25.9649 40.3787L25.4699 38.4409Z" fill="#B8B4B5" mask="url(#path-2-inside-1_2200_2691)"/>
<rect x="5" y="5" width="32" height="32" rx="16" fill="white"/>
<path d="M15.3513 26.7821C15.9847 26.7821 16.5013 27.2988 16.5013 27.9321C16.5013 28.5654 15.9847 29.0821 15.3513 29.0821C14.718 29.0821 14.2013 28.5654 14.2013 27.9321C14.2013 27.2988 14.718 26.7821 15.3513 26.7821ZM15.3513 25.1154C13.8013 25.1154 12.5347 26.3738 12.5347 27.9321C12.5347 29.4904 13.793 30.7488 15.3513 30.7488C16.9097 30.7488 18.168 29.4904 18.168 27.9321C18.168 26.3738 16.9097 25.1154 15.3513 25.1154Z" fill="#282425"/>
<path fill-rule="evenodd" clip-rule="evenodd" d="M25.3172 26.0321C25.4005 26.4238 25.7505 26.6988 26.1338 26.6988C26.1838 26.6988 26.2421 26.6904 26.3004 26.6821L26.3005 26.6821L26.3005 26.6821L26.3005 26.6821C26.7505 26.5904 27.0422 26.1488 26.9505 25.6988L26.7357 24.6507L26.7403 24.6498L24.7078 14.7394L24.7043 14.7401L24.4088 13.2988L26.5172 12.8988C26.9672 12.8154 27.2588 12.3738 27.1755 11.9238C27.0922 11.4738 26.6505 11.1821 26.2005 11.2654L23.2672 11.8154C23.0505 11.8571 22.8588 11.9904 22.7338 12.1738C22.6088 12.3571 22.5672 12.5904 22.6088 12.8071L24.6222 22.6385C24.5973 22.6624 24.5737 22.688 24.5513 22.7154L21.5332 26.4404H17.7731C17.2773 25.5893 16.3545 25.0154 15.3013 25.0154C13.7263 25.0154 12.443 26.2987 12.443 27.8821V27.9154C12.443 27.9654 12.4847 28.0071 12.543 28.0071H16.2958L16.3013 28.0071H22.0597C22.3596 28.0071 22.6202 27.8385 22.7518 27.5909L25.0544 24.749L25.3172 26.0321Z" fill="#F26961"/>
<path d="M25.6097 19.7581C25.3181 19.7586 25.0594 19.5589 25.0007 19.259L24.4971 16.8264C24.43 16.4849 24.6462 16.1595 24.9794 16.0924C25.3126 16.0252 25.6463 16.2414 25.7218 16.5746L26.2253 19.0073C26.2925 19.3488 26.0763 19.6741 25.743 19.7413C25.7014 19.7497 25.6597 19.7581 25.6181 19.7581L25.6097 19.7581Z" fill="#282425"/>
<path d="M26.7403 26.7821C27.3737 26.7821 27.8903 27.2988 27.8903 27.9321C27.8903 28.5654 27.3737 29.0821 26.7403 29.0821C26.107 29.0821 25.5903 28.5654 25.5903 27.9321C25.5903 27.2988 26.107 26.7821 26.7403 26.7821ZM26.7403 25.1154C25.1903 25.1154 23.9237 26.3738 23.9237 27.9321C23.9237 29.4904 25.182 30.7488 26.7403 30.7488C28.2987 30.7488 29.557 29.4904 29.557 27.9321C29.557 26.3738 28.2987 25.1154 26.7403 25.1154Z" fill="#282425"/>
<path d="M23.8922 15.7404C23.5088 15.7404 23.1588 15.4654 23.0755 15.0738L22.6088 12.8071C22.5672 12.5904 22.6088 12.3571 22.7338 12.1738C22.8588 11.9904 23.0505 11.8571 23.2672 11.8154L26.2005 11.2654C26.6588 11.1821 27.0922 11.4738 27.1755 11.9238C27.2588 12.3738 26.9672 12.8154 26.5172 12.8988L24.4088 13.2988L24.7005 14.7321C24.7922 15.1821 24.5005 15.6238 24.0505 15.7154C23.9922 15.7238 23.9338 15.7321 23.8838 15.7321L23.8922 15.7404Z" fill="#282425"/>
</svg>
